# xmcd
# Copyright (C) 1995-1998 Ti Kan
#
# Track frame offsets:
#       150
#       23625
#       48225
#       66673
#       94270
#       122681
#       124909
#       139765
#       167207
#       194888
#
# Disc length: 2970 seconds
#
# Revision: 0
# Processed by: cddbd v1.5.2PL0 Copyright (c) Steve Scherf et al.
# Submitted via: CD-Import v1.0
#
DISCID=980b980a
DTITLE=Littl Shyning Man - Mockery
DYEAR=1900
DGENRE=
TTITLE0=Jambouree
TTITLE1=Song Of Blak Deth
TTITLE2=Silkie
TTITLE3='neath The Chewy Bridge
TTITLE4=Blood Lantern
TTITLE5=Verisidet One
TTITLE6=Verisidet Two
TTITLE7=Inchborough
TTITLE8=Elephant Graveyard
TTITLE9=Man What Grew Up From Acorn
EXTD=
EXTT0=
EXTT1=
EXTT2=
EXTT3=
EXTT4=
EXTT5=
EXTT6=
EXTT7=
EXTT8=
EXTT9=
PLAYORDER=
